<svg width="31" height="31" viewBox="0 0 31 31" fill="none" xmlns="http://www.w3.org/2000/svg">
<path d="M7.74991 11.6251C8.05171 11.6245 8.34419 11.7296 8.57657 11.9221L15.4999 17.7088L22.4362 12.1288C22.5683 12.0215 22.7203 11.9414 22.8835 11.893C23.0467 11.8447 23.2178 11.8291 23.3871 11.8471C23.5563 11.8651 23.7203 11.9164 23.8697 11.998C24.0191 12.0796 24.1508 12.1899 24.2574 12.3226C24.3647 12.4547 24.4448 12.6067 24.4932 12.7699C24.5415 12.9331 24.5571 13.1042 24.5391 13.2735C24.5211 13.4427 24.4699 13.6067 24.3883 13.7561C24.3067 13.9054 24.1963 14.0372 24.0637 14.1438L16.3137 20.3826C16.0825 20.5725 15.7926 20.6764 15.4934 20.6764C15.1943 20.6764 14.9044 20.5725 14.6732 20.3826L6.92324 13.9242C6.79245 13.8158 6.68433 13.6826 6.60509 13.5323C6.52584 13.3821 6.47702 13.2176 6.46142 13.0484C6.44582 12.8793 6.46376 12.7087 6.51419 12.5464C6.56462 12.3842 6.64656 12.2335 6.75532 12.103C6.87552 11.9548 7.02705 11.8351 7.19901 11.7525C7.37098 11.6698 7.55912 11.6263 7.74991 11.6251Z" fill="#F7931E"/>
</svg>
